<svg id="レイヤー_1" data-name="レイヤー 1" xmlns="http://www.w3.org/2000/svg" viewBox="0 0 40.79 30.25"><defs><style>.cls-1{fill:#fff;}</style></defs><title>title</title><path class="cls-1" d="M40.36,48a1.6,1.6,0,0,1-1.81,1.82h-6A1.6,1.6,0,0,1,30.77,48V43.23h3v4.05h3.63v-3.9l-6-5.64a2.13,2.13,0,0,1-.65-1.59V31.72a1.6,1.6,0,0,1,1.79-1.83h6a1.6,1.6,0,0,1,1.81,1.81v4.45h-3V32.4H33.75V36l6,5.62a2.14,2.14,0,0,1,.65,1.62Z" transform="translate(-28.04 -29.89)"/><path class="cls-1" d="M52.68,48a1.61,1.61,0,0,1-1.83,1.82H44.53A1.6,1.6,0,0,1,42.72,48V29.89h3V47.23h4V29.89h3Z" transform="translate(-28.04 -29.89)"/><path class="cls-1" d="M64.86,48A1.61,1.61,0,0,1,63,49.79H56.83A1.59,1.59,0,0,1,55.07,48V31.72c0-1.22.59-1.83,1.76-1.83H63a1.61,1.61,0,0,1,1.82,1.83v4.66h-3V32.45H58V47.23h3.85V43.05h3Z" transform="translate(-28.04 -29.89)"/><path class="cls-1" d="M30.83,59.64a.49.49,0,0,1-.14.36.45.45,0,0,1-.36.14H28.55a.48.48,0,0,1-.51-.5v-1.8h.63v1.75H30.2V57.9l-1.95-2.36A.84.84,0,0,1,28,55V53.56a.49.49,0,0,1,.14-.36.53.53,0,0,1,.37-.14h1.78a.48.48,0,0,1,.5.5v1.65H30.2V53.62H28.67v1.49l2,2.36a.82.82,0,0,1,.19.53Z" transform="translate(-28.04 -29.89)"/><path class="cls-1" d="M34.38,53.62H33.29v6.52h-.63V53.62h-1.1v-.56h2.82Z" transform="translate(-28.04 -29.89)"/><path class="cls-1" d="M37.45,60.14H35.12V53.06h2.3v.56H35.75v2.64h1.52v.57H35.75v2.76h1.7Z" transform="translate(-28.04 -29.89)"/><path class="cls-1" d="M41.24,56.83a.52.52,0,0,1-.14.36.53.53,0,0,1-.37.14H39.06v2.81h-.63V53.06h2.3a.53.53,0,0,1,.37.14.49.49,0,0,1,.14.36Zm-.63-.06V53.62H39.06v3.15Z" transform="translate(-28.04 -29.89)"/><path class="cls-1" d="M47,59.64a.48.48,0,0,1-.51.5H44.55a.45.45,0,0,1-.36-.14.49.49,0,0,1-.14-.36V53.06h.63v6.53h1.68V53.06H47Z" transform="translate(-28.04 -29.89)"/><path class="cls-1" d="M50.93,56.83a.52.52,0,0,1-.14.36.53.53,0,0,1-.37.14H48.75v2.81h-.63V53.06h2.3a.53.53,0,0,1,.37.14.49.49,0,0,1,.14.36Zm-.63-.06V53.62H48.75v3.15Z" transform="translate(-28.04 -29.89)"/><path class="cls-1" d="M56.58,59.64a.46.46,0,0,1-.15.36.47.47,0,0,1-.36.14H54.24a.45.45,0,0,1-.36-.14.49.49,0,0,1-.14-.36V53.56a.48.48,0,0,1,.5-.5h1.83a.51.51,0,0,1,.36.14.46.46,0,0,1,.15.36v1.65h-.64V53.62H54.37v6h1.57V57.84h.64Z" transform="translate(-28.04 -29.89)"/><path class="cls-1" d="M60.54,60.14h-.63l-.25-1.57H58.25L58,60.14h-.6L58.66,53h.62Zm-1-2.13L59,54.17,58.33,58Z" transform="translate(-28.04 -29.89)"/><path class="cls-1" d="M64.89,60.14H64.3V55.66c0-.07,0-.25.06-.56L63.2,59.48h-.13L61.92,55.1c0,.31.06.5.06.56v4.48h-.59V53.06H62l1.15,4.61a1.34,1.34,0,0,1,0,.2.87.87,0,0,1,0-.2l1.15-4.61h.58Z" transform="translate(-28.04 -29.89)"/><path class="cls-1" d="M68.83,56.83a.52.52,0,0,1-.14.36.53.53,0,0,1-.37.14H66.65v2.81H66V53.06h2.3a.53.53,0,0,1,.37.14.49.49,0,0,1,.14.36Zm-.63-.06V53.62H66.65v3.15Z" transform="translate(-28.04 -29.89)"/></svg>